<?xml version="1.0" encoding="UTF-8"?>
<svg width="16" height="16" viewBox="0 0 16 16" fill="none" xmlns="http://www.w3.org/2000/svg">
    <path d="M8.5 2.5a1 1 0 0 0-1-1h-5a1 1 0 0 0-1 1v11a1 1 0 0 0 1 1h5a1 1 0 0 0 1-1v-1h1.5a.5.5 0 0 0 0-1H8.5v-2h3a.5.5 0 0 0 0-1h-3v-2h3a.5.5 0 0 0 0-1h-3v-2h1.5a.5.5 0 0 0 0-1H8.5v-1z" fill="currentColor"/>
    <path d="M12 4.5a.5.5 0 0 1 .5-.5h2a.5.5 0 0 1 0 1h-2a.5.5 0 0 1-.5-.5z" fill="currentColor"/>
    <path d="M12 7.5a.5.5 0 0 1 .5-.5h2a.5.5 0 0 1 0 1h-2a.5.5 0 0 1-.5-.5z" fill="currentColor"/>
    <path d="M12 10.5a.5.5 0 0 1 .5-.5h2a.5.5 0 0 1 0 1h-2a.5.5 0 0 1-.5-.5z" fill="currentColor"/>
</svg>